<svg xmlns="http://www.w3.org/2000/svg" id="agd-logo" width="247.2" height="66.23">
  <g id="text">
    <path fill="none" stroke="#808285" stroke-width="1.73" stroke-miterlimit="3.864" d="M64.9 27.49h166.39"/>
    <path fill="#004B88" fill-rule="evenodd" d="M70.09 37.84h-3.46l1.73-4.39 1.73 4.39zm-5.37 2.82h.76l.86-2.13h4.01l.86 2.13h.82l-3.16-7.96h-.89l-3.26 7.96z" clip-rule="evenodd"/>
    <path fill="#004B88" d="M75.59 34.84h-1.32v-1.65l-.72.25v1.4h-1.14v.62h1.14v3.4c-.01.36.01.68.06.97.05.29.17.52.35.7.19.17.49.26.91.27.18 0 .35-.02.51-.05.16-.03.28-.07.37-.11l-.05-.59c-.1.04-.2.07-.3.1-.1.02-.22.04-.36.04-.29-.01-.49-.1-.61-.28s-.17-.41-.17-.68v-3.77h1.32v-.62zm3.8 0h-1.32v-1.65l-.72.25v1.4h-1.14v.62h1.14v3.4c-.01.36.01.68.06.97.05.29.16.52.35.7.19.17.49.26.91.27.18 0 .35-.02.51-.05.16-.03.28-.07.37-.11l-.05-.59c-.1.04-.2.07-.3.1-.1.02-.22.04-.36.04-.29-.01-.49-.1-.61-.28s-.17-.41-.17-.68v-3.77h1.32v-.62z"/>
    <path fill="#004B88" fill-rule="evenodd" d="M81.03 37.75c0-.69.17-1.26.49-1.72.33-.46.8-.69 1.43-.71.63.02 1.11.25 1.43.71.33.46.49 1.03.49 1.72s-.17 1.26-.49 1.72c-.33.46-.81.69-1.43.71-.63-.02-1.11-.25-1.43-.71-.33-.46-.49-1.03-.49-1.72m-.79 0c0 .54.09 1.04.28 1.5.19.46.49.83.89 1.11.4.28.91.43 1.54.44.63-.01 1.14-.15 1.54-.44.4-.28.7-.65.89-1.11.19-.46.29-.96.29-1.5s-.09-1.03-.29-1.49c-.19-.46-.49-.83-.89-1.11-.4-.28-.92-.43-1.54-.44-.63.01-1.14.15-1.54.44-.4.28-.7.65-.89 1.11-.19.46-.28.95-.28 1.49" clip-rule="evenodd"/>
    <path fill="#004B88" d="M87.02 40.66h.72v-2.88c0-.36.04-.72.12-1.07.08-.35.23-.65.44-.89s.5-.36.88-.37c.09 0 .18.01.27.02.09.01.17.03.25.05v-.75c-.07-.02-.14-.03-.23-.05-.09-.01-.18-.02-.27-.02-.37.01-.68.14-.93.38s-.44.54-.57.87v-1.12h-.72c.02.2.04.39.04.57.01.18.01.42.01.73v4.53zm3.99 0h.72v-3.22c0-.33.05-.66.16-.98.11-.32.29-.59.54-.81.25-.21.6-.33 1.03-.34.49.01.85.17 1.06.49.22.32.32.76.32 1.31v3.54h.72v-3.72c.01-.65-.14-1.18-.45-1.6-.31-.41-.82-.63-1.53-.64-.59.02-1.03.15-1.3.39-.28.24-.47.51-.58.78h-.02v-1.04h-.7c.01.25.02.48.02.71.01.23.01.45.01.68v4.45z"/>
    <path fill="#004B88" fill-rule="evenodd" d="M97.7 37.34c0-.33.07-.64.21-.95.14-.31.33-.56.59-.76.26-.2.56-.3.92-.31.36.01.64.1.86.3.22.19.38.44.48.75s.15.63.15.98H97.7zm3.55 2.41c-.19.11-.43.21-.75.3-.31.09-.61.13-.89.14-.63-.02-1.11-.23-1.43-.65-.32-.42-.49-.94-.49-1.58h3.98v-.36c0-.53-.08-1.01-.23-1.44-.16-.43-.41-.78-.75-1.04s-.79-.39-1.33-.4c-.75.02-1.34.3-1.78.86-.44.55-.66 1.29-.67 2.19-.01.89.19 1.62.6 2.18s1.09.85 2.05.87c.27 0 .56-.03.86-.08.3-.05.58-.13.83-.24v-.75z" clip-rule="evenodd"/>
    <path fill="#004B88" d="M103.03 34.84h-.79l2.07 5.89-.15.51c-.11.38-.23.69-.38.92-.15.23-.37.35-.67.35-.13 0-.23-.01-.32-.03-.08-.02-.15-.04-.22-.06l-.07.61c.12.03.25.05.38.07.13.02.27.02.4.02.4-.02.71-.18.95-.5.23-.32.42-.68.55-1.1l2.33-6.69h-.75l-1.68 4.85h-.01l-1.64-4.84zm4.65 2.35h2.86v.79h-2.86zm9.77 2.64c-.2.11-.47.19-.8.23-.33.04-.63.06-.89.06-1.05-.02-1.85-.34-2.4-.96-.55-.63-.82-1.45-.83-2.47 0-.66.13-1.25.38-1.77.25-.51.62-.92 1.1-1.21.48-.29 1.07-.45 1.76-.45.35 0 .7.02 1.05.08.35.06.68.17.99.34l.09-.73c-.28-.14-.63-.23-1.04-.29-.41-.06-.77-.09-1.09-.08-.83.01-1.54.18-2.14.53-.6.35-1.06.83-1.39 1.44-.33.62-.49 1.33-.49 2.14.01 1.25.37 2.24 1.07 2.98.7.74 1.68 1.12 2.95 1.14.44 0 .86-.04 1.26-.11.4-.08.81-.2 1.21-.38v-3.96h-2.64v.68h1.85v2.79z"/>
    <path fill="#004B88" fill-rule="evenodd" d="M120.49 37.34c0-.33.07-.64.21-.95.14-.31.33-.56.59-.76.26-.2.56-.3.92-.31.36.01.64.1.86.3.22.19.38.44.48.75.1.31.15.63.15.98h-3.21zm3.55 2.41c-.19.11-.43.21-.75.3-.31.09-.61.13-.89.14-.63-.02-1.11-.23-1.43-.65-.32-.42-.49-.94-.49-1.58h3.98v-.36c0-.53-.08-1.01-.23-1.44-.16-.43-.41-.78-.75-1.04s-.79-.39-1.33-.4c-.75.02-1.34.3-1.78.86-.44.55-.66 1.29-.67 2.19-.01.89.19 1.62.6 2.18s1.09.85 2.05.87c.27 0 .56-.03.86-.08.3-.05.58-.13.83-.24v-.75z" clip-rule="evenodd"/>
    <path fill="#004B88" d="M125.83 40.66h.72v-3.22c0-.33.05-.66.16-.98.11-.32.29-.59.54-.81.25-.21.6-.33 1.03-.34.49.01.85.17 1.06.49.22.32.32.76.32 1.31v3.54h.72v-3.72c.01-.65-.14-1.18-.45-1.6-.31-.41-.82-.63-1.53-.64-.59.02-1.03.15-1.3.39-.28.24-.47.51-.58.78h-.02v-1.04h-.7c.02.23.04.46.04.69.01.23.01.45.01.68v4.47z"/>
    <path fill="#004B88" fill-rule="evenodd" d="M132.53 37.34c0-.33.07-.64.21-.95.14-.31.33-.56.59-.76.26-.2.56-.3.92-.31.36.01.64.1.86.3.22.19.38.44.48.75.1.31.15.63.15.98h-3.21zm3.54 2.41c-.19.11-.43.21-.75.3-.31.09-.61.13-.89.14-.63-.02-1.11-.23-1.43-.65-.32-.42-.49-.94-.49-1.58h3.98v-.36c0-.53-.08-1.01-.23-1.44-.16-.43-.41-.78-.75-1.04s-.79-.39-1.33-.4c-.75.02-1.34.3-1.78.86-.44.55-.66 1.29-.67 2.19-.01.89.19 1.62.6 2.18s1.09.85 2.05.87c.27 0 .56-.03.86-.08.3-.05.58-.13.83-.24v-.75z" clip-rule="evenodd"/>
    <path fill="#004B88" d="M137.87 40.66h.72v-2.88c0-.36.04-.72.12-1.07.08-.35.23-.65.45-.89.21-.24.5-.36.88-.37.09 0 .18.01.28.02.09.01.17.03.25.05v-.75c-.07-.02-.14-.03-.23-.05-.09-.01-.18-.02-.27-.02-.37.01-.68.14-.93.38s-.44.54-.57.87h-.02v-1.12h-.72c.02.2.04.39.04.57.01.18.01.42.01.73v4.53z"/>
    <path fill="#004B88" fill-rule="evenodd" d="M144.94 38.08c.01.22-.01.5-.07.82-.06.33-.21.62-.45.87-.25.26-.64.39-1.2.4-.34 0-.63-.07-.85-.24-.23-.16-.35-.43-.36-.81.01-.42.15-.73.43-.93.28-.2.62-.33 1.04-.39.42-.06.84-.09 1.26-.08h.21v.36zm.07 2.58h.71c-.03-.2-.04-.39-.05-.58-.01-.19-.01-.4-.01-.64v-2.57c.01-.76-.16-1.31-.48-1.65-.33-.35-.85-.52-1.56-.52-.27 0-.56.04-.88.12-.32.08-.6.17-.83.28v.7c.27-.17.54-.29.83-.37.29-.08.58-.11.88-.11.48 0 .82.13 1.03.38.2.25.3.62.3 1.12v.3h-.14c-.52-.01-1.05.02-1.6.1s-1.01.26-1.39.55c-.38.29-.58.76-.59 1.4-.01.18.04.4.13.66.09.25.28.48.56.67.28.2.69.3 1.23.31.37 0 .73-.09 1.07-.27.35-.18.6-.45.77-.8h.02v.92z" clip-rule="evenodd"/>
    <path fill="#004B88" d="M147.36 32.1h.72v8.56h-.72zm2.46 3.08h.65l.87-2.48h-.85zm1.65 5.34c.26.1.52.17.8.21.27.04.55.06.83.06.3 0 .61-.05.92-.15.31-.11.57-.28.78-.52.21-.24.32-.57.33-.98-.01-.47-.16-.83-.45-1.1-.28-.26-.61-.48-.99-.64-.37-.16-.7-.32-.98-.48-.28-.16-.43-.37-.45-.63.01-.37.12-.62.35-.76.23-.14.53-.21.91-.21.21 0 .42.02.65.07.23.05.44.11.64.2l.07-.63c-.26-.1-.53-.16-.8-.2-.27-.04-.48-.06-.64-.06-.5-.01-.93.11-1.31.36-.37.25-.57.65-.59 1.23.01.41.16.73.44.96.28.23.6.42.96.58.36.15.68.33.96.52.28.19.42.46.44.79-.01.33-.14.59-.39.77-.25.18-.55.27-.9.27-.28 0-.55-.04-.81-.1-.26-.07-.49-.15-.71-.26l-.06.7z"/>
    <path fill="#004B88" fill-rule="evenodd" d="M159.63 40.66h1.39c.89.01 1.67-.13 2.36-.39.68-.27 1.22-.69 1.61-1.28.39-.59.59-1.36.6-2.32 0-.78-.13-1.47-.4-2.06-.27-.59-.7-1.06-1.28-1.39-.59-.34-1.35-.51-2.3-.51h-1.97v7.95zm.78-7.28h1.15c.6 0 1.14.1 1.63.3.49.2.87.54 1.16 1.02.29.48.43 1.12.44 1.92-.01 1.21-.35 2.07-1.02 2.59s-1.57.77-2.71.76h-.65v-6.59zm7.16 3.96c0-.33.07-.64.21-.95.14-.31.33-.56.59-.76.26-.2.56-.3.92-.31.36.01.64.1.86.3.22.19.38.44.48.75.1.31.15.63.15.98h-3.21zm3.55 2.41c-.19.11-.43.21-.75.3-.31.09-.61.13-.89.14-.63-.02-1.11-.23-1.43-.65-.32-.42-.49-.94-.49-1.58h3.98v-.36c0-.53-.08-1.01-.23-1.44-.16-.43-.41-.78-.75-1.04s-.79-.39-1.33-.4c-.75.02-1.34.3-1.78.86-.44.55-.66 1.29-.67 2.19-.01.89.19 1.62.6 2.18s1.09.85 2.05.87c.27 0 .56-.03.86-.08.3-.05.58-.13.83-.24v-.75zm5.89-2c0 .39-.04.76-.14 1.13-.1.37-.27.68-.52.92s-.6.37-1.06.38c-.42-.01-.76-.14-1.01-.39s-.43-.56-.55-.93c-.11-.37-.16-.74-.16-1.1 0-.36.05-.73.16-1.1.11-.37.29-.68.55-.93.25-.25.59-.39 1.01-.4.45.01.8.14 1.06.38.25.24.43.55.52.92.1.36.14.73.14 1.12m-4.16 5.3h.72v-3.39h.02c.17.38.41.66.7.85s.66.28 1.12.28c.53-.01.98-.14 1.33-.41.36-.27.62-.63.8-1.08.18-.46.26-.98.26-1.56.01-.9-.18-1.63-.55-2.19-.38-.56-.99-.84-1.84-.86-.41.01-.74.09-.99.24s-.44.32-.58.51c-.13.19-.23.34-.29.45h-.02l.04-1.06h-.72v8.22zm9.68-4.97c.01.22-.01.5-.07.82-.06.33-.21.62-.45.87-.25.26-.64.39-1.2.4-.34 0-.63-.07-.85-.24-.23-.16-.35-.43-.36-.81.01-.42.15-.73.43-.93.28-.2.62-.33 1.04-.39.42-.06.84-.09 1.26-.08h.21v.36zm.07 2.58h.71c-.03-.2-.04-.39-.05-.58-.01-.19-.01-.4-.01-.64v-2.57c.01-.76-.15-1.31-.48-1.65-.33-.35-.85-.52-1.56-.52-.27 0-.56.04-.88.12-.32.08-.6.17-.83.28v.7c.27-.17.54-.29.83-.37.29-.08.58-.11.88-.11.48 0 .82.13 1.03.38.2.25.3.62.3 1.12v.3h-.14c-.52-.01-1.05.02-1.6.1s-1.01.26-1.39.55c-.38.29-.58.76-.59 1.4-.01.18.04.4.13.66.09.25.28.48.56.67.28.2.69.3 1.23.31.37 0 .73-.09 1.07-.27.34-.18.6-.45.77-.8h.02v.92z" clip-rule="evenodd"/>
    <path fill="#004B88" d="M184.94 40.66h.72v-2.88c0-.36.04-.72.12-1.07.08-.35.23-.65.44-.89s.5-.36.88-.37c.09 0 .18.01.27.02.09.01.17.03.25.05v-.75c-.07-.02-.14-.03-.23-.05-.09-.01-.18-.02-.27-.02-.37.01-.68.14-.93.38s-.44.54-.57.87h-.02v-1.12h-.72c.02.2.04.39.04.57.01.18.01.42.01.73v4.53zm6.32-5.82h-1.32v-1.65l-.72.25v1.4h-1.14v.62h1.14v3.4c-.01.36.01.68.06.97.05.29.16.52.35.7.19.17.49.26.91.27.18 0 .35-.02.51-.05.16-.03.28-.07.37-.11l-.05-.59c-.1.04-.2.07-.3.1-.1.02-.22.04-.36.04-.29-.01-.49-.1-.61-.28-.12-.18-.17-.41-.17-.68v-3.77h1.32v-.62zm9.04 5.82v-4c0-.58-.16-1.04-.48-1.4s-.77-.54-1.36-.55c-.46.01-.85.13-1.17.36-.32.23-.55.52-.69.87h-.02c-.07-.33-.19-.59-.37-.77-.18-.18-.37-.3-.59-.37-.21-.07-.41-.1-.59-.09-.41.01-.73.08-.97.2-.24.13-.42.28-.55.45-.13.17-.22.33-.29.47l-.02-.01v-.98h-.7c.02.23.04.46.04.69.01.23.01.45.01.68v4.45h.72v-3.22c.02-.72.18-1.26.49-1.6.31-.35.67-.52 1.08-.52.46.01.78.15.96.43s.28.62.27 1.04v3.87h.72v-3.22c.02-.72.18-1.26.49-1.6.31-.35.67-.52 1.08-.52.46.01.78.15.96.43.19.27.28.62.27 1.04v3.87h.71z"/>
    <path fill="#004B88" fill-rule="evenodd" d="M202.4 37.34c0-.33.07-.64.21-.95.14-.31.33-.56.59-.76.26-.2.56-.3.92-.31.36.01.64.1.86.3.22.19.38.44.48.75s.15.63.15.98h-3.21zm3.55 2.41c-.19.11-.43.21-.75.3-.31.09-.61.13-.88.14-.63-.02-1.11-.23-1.43-.65-.32-.42-.49-.94-.49-1.58h3.98v-.36c0-.53-.08-1.01-.23-1.44-.16-.43-.41-.78-.75-1.04s-.78-.39-1.33-.4c-.75.02-1.34.3-1.78.86-.44.55-.66 1.29-.67 2.19-.01.89.19 1.62.6 2.18s1.09.85 2.05.87c.27 0 .56-.03.86-.08.3-.05.58-.13.83-.24v-.75z" clip-rule="evenodd"/>
    <path fill="#004B88" d="M207.74 40.66h.72v-3.22c0-.33.05-.66.16-.98.11-.32.29-.59.54-.81.25-.21.6-.33 1.03-.34.49.01.85.17 1.06.49.22.32.32.76.32 1.31v3.54h.72v-3.72c.01-.65-.14-1.18-.45-1.6-.31-.41-.82-.63-1.53-.64-.59.02-1.03.15-1.3.39-.28.24-.47.51-.58.78h-.02v-1.04h-.7c.02.23.04.46.04.69.01.23.01.45.01.68v4.47zm8.85-5.82h-1.32v-1.65l-.72.25v1.4h-1.14v.62h1.14v3.4c-.01.36.01.68.06.97.05.29.16.52.35.7.19.17.49.26.91.27.18 0 .35-.02.51-.05.16-.03.28-.07.37-.11l-.05-.59c-.1.04-.2.07-.3.1-.1.02-.22.04-.36.04-.29-.01-.49-.1-.61-.28s-.17-.41-.17-.68v-3.77h1.32v-.62zM71.81 13.73c-.34-.1-.7-.18-1.08-.24-.38-.06-.8-.09-1.26-.09-1.37.01-2.43.38-3.2 1.1-.77.73-1.16 1.78-1.17 3.15.01.9.19 1.64.56 2.23.37.59.88 1.03 1.53 1.32.65.29 1.41.43 2.28.43.43 0 .86-.04 1.29-.12.43-.08.86-.17 1.28-.29v-4.29h-3.22v1.25h1.69v2.08c-.14.04-.29.06-.46.08-.17.02-.37.03-.58.03-.86-.02-1.52-.29-1.99-.81-.47-.53-.71-1.2-.71-2.03 0-.83.25-1.52.75-2.06.49-.54 1.21-.81 2.14-.83.33 0 .67.04 1.04.1.36.07.7.18 1.02.32l.09-1.33z"/>
    <path fill="#004B88" fill-rule="evenodd" d="M74.79 18.42c0-.46.12-.86.36-1.2.24-.35.61-.53 1.11-.54.5.02.87.2 1.12.54.24.34.37.74.36 1.21 0 .33-.04.66-.12.96-.09.31-.24.56-.45.76-.22.2-.52.3-.91.31-.38-.01-.68-.11-.9-.31-.21-.2-.36-.46-.45-.76-.08-.32-.13-.64-.12-.97m-1.6.19c0 .57.12 1.08.36 1.54.24.46.59.82 1.05 1.09.46.27 1.01.4 1.66.41.65-.01 1.21-.14 1.67-.41.46-.27.81-.63 1.05-1.09.24-.46.36-.97.36-1.54-.01-.65-.14-1.21-.41-1.67s-.63-.82-1.1-1.07c-.46-.25-.99-.37-1.57-.38-.58 0-1.11.13-1.57.38-.46.25-.82.6-1.09 1.07-.27.46-.4 1.02-.41 1.67" clip-rule="evenodd"/>
    <path fill="#004B88" d="M82.04 21.5h1.72l2.17-5.87H84.4l-1.42 4.28h-.02l-1.46-4.28h-1.64z"/>
    <path fill="#004B88" fill-rule="evenodd" d="M91.53 19.93c-.28.16-.59.3-.91.42s-.67.17-1.04.18c-.48 0-.87-.13-1.17-.39-.3-.26-.47-.62-.51-1.1h4.06c.01-.69-.07-1.3-.24-1.83-.17-.53-.45-.95-.86-1.25-.41-.3-.97-.46-1.69-.46-.61.01-1.11.15-1.52.43-.4.28-.71.65-.91 1.12-.2.47-.3.99-.3 1.56.01.97.28 1.72.81 2.25s1.29.79 2.26.8c.41 0 .78-.04 1.11-.12.33-.08.63-.2.91-.35v-1.26zm-3.63-1.94c.03-.4.16-.73.38-.99.22-.25.55-.39.98-.39.42.01.73.15.93.41.19.26.3.59.32.97H87.9z" clip-rule="evenodd"/>
    <path fill="#004B88" d="M93.16 21.5h1.53v-2.16c-.01-.3.01-.63.05-1s.15-.69.32-.97.47-.42.88-.43c.14 0 .27.01.39.03.12.02.22.05.29.09v-1.54c-.08-.02-.16-.04-.24-.04-.08-.01-.16-.01-.23-.01-.31.01-.57.1-.81.26-.23.17-.42.36-.56.59-.14.23-.22.43-.24.63h-.02v-1.33h-1.36v5.88zm4.58 0h1.53v-2.88c0-.26.03-.54.1-.84.07-.3.21-.56.4-.77.2-.22.48-.33.84-.34.32.01.55.1.69.28.14.18.23.39.26.65s.05.51.04.76v3.14h1.53v-3.7c0-.68-.15-1.23-.48-1.65-.32-.42-.83-.64-1.52-.66-.4 0-.76.07-1.09.21-.32.15-.6.39-.84.72h-.02v-.8h-1.45v5.88zm6.92 0h1.53v-2.85c0-.26.02-.55.07-.85.05-.3.16-.56.32-.78.16-.22.41-.33.75-.34.29.01.49.08.62.22s.2.31.23.52c.03.2.04.4.03.59v3.5h1.53v-2.85c-.01-.26.02-.55.07-.85.05-.3.16-.56.32-.78.17-.22.41-.33.75-.34.29.01.49.08.62.22s.2.31.23.52c.03.2.04.4.03.59v3.5h1.53V17.8c.01-.67-.12-1.22-.39-1.64-.27-.43-.76-.65-1.47-.66-.37 0-.72.08-1.06.25-.33.17-.6.43-.78.78-.17-.36-.39-.63-.68-.79-.29-.16-.64-.25-1.05-.24-.29-.01-.6.07-.91.21-.31.14-.59.39-.84.75h-.02v-.82h-1.42v5.86z"/>
    <path fill="#004B88" fill-rule="evenodd" d="M119.5 19.93c-.28.16-.59.3-.91.42s-.67.17-1.04.18c-.48 0-.87-.13-1.17-.39-.3-.26-.47-.62-.51-1.1h4.06c.01-.69-.07-1.3-.24-1.83-.17-.53-.45-.95-.86-1.25-.41-.3-.97-.46-1.69-.46-.61.01-1.11.15-1.52.43-.4.28-.71.65-.91 1.12-.2.47-.3.99-.3 1.56.01.97.27 1.72.81 2.25.53.53 1.29.79 2.26.8.41 0 .78-.04 1.11-.12.33-.08.63-.2.91-.35v-1.26zm-3.63-1.94c.03-.4.16-.73.38-.99.22-.25.55-.39.97-.39.42.01.73.15.93.41.19.26.3.59.32.97h-2.6z" clip-rule="evenodd"/>
    <path fill="#004B88" d="M121.1 21.5h1.53v-2.88c0-.26.03-.54.1-.84.07-.3.21-.56.4-.77.2-.22.48-.33.84-.34.32.01.55.1.69.28.14.18.23.39.26.65s.05.51.04.76v3.14h1.53v-3.7c0-.68-.15-1.23-.48-1.65-.32-.42-.83-.64-1.52-.66-.4 0-.76.07-1.09.21-.32.15-.6.39-.85.72h-.02v-.8h-1.45v5.88zm7.44-1.76c0 .59.16 1.05.48 1.39.32.34.78.51 1.38.52.23 0 .43-.01.62-.03.18-.02.36-.06.51-.1l-.05-1.21c-.08.05-.18.09-.3.12s-.25.04-.39.04c-.28-.01-.48-.11-.58-.3-.1-.19-.15-.41-.14-.67v-2.74h1.36v-1.12h-1.36v-1.67l-1.53.49v1.18h-1.13v1.12h1.13v2.98z"/>
    <path fill="#004B88" fill-rule="evenodd" d="M136.8 18.42c0-.46.12-.86.36-1.2.24-.35.61-.53 1.11-.54.5.02.87.2 1.12.54.24.34.37.74.37 1.21 0 .33-.04.66-.12.96-.08.31-.24.56-.45.76-.22.2-.52.3-.91.31-.38-.01-.68-.11-.9-.31-.21-.2-.36-.46-.45-.76-.09-.32-.13-.64-.13-.97m-1.59.19c0 .57.12 1.08.36 1.54.24.46.59.82 1.05 1.09.46.27 1.01.4 1.66.41.65-.01 1.21-.14 1.67-.41.46-.27.81-.63 1.05-1.09.24-.46.36-.97.36-1.54-.01-.65-.14-1.21-.41-1.67s-.63-.82-1.1-1.07c-.46-.25-.99-.37-1.57-.38-.58 0-1.11.13-1.57.38-.46.25-.82.6-1.09 1.07-.27.46-.41 1.02-.41 1.67" clip-rule="evenodd"/>
    <path fill="#004B88" d="M143.09 21.5h1.53v-4.76h1.33v-1.12h-1.33v-.72c0-.24.04-.45.14-.62.1-.18.28-.27.53-.28.16 0 .3.03.4.07.11.05.19.09.26.13l.13-1.27c-.15-.04-.33-.06-.52-.09-.2-.02-.39-.04-.59-.04-.61.01-1.07.2-1.39.56-.32.36-.48.84-.48 1.44v.82h-1.13v1.12h1.13v4.76zm11.54-7.81c-.58-.19-1.22-.28-1.91-.28-.48 0-.92.08-1.35.24-.42.16-.76.42-1.03.77-.26.36-.4.83-.41 1.42.02.64.2 1.13.55 1.45.35.32.75.57 1.2.73.46.17.86.34 1.2.52.35.18.53.46.54.82-.01.24-.08.43-.23.59-.15.15-.33.26-.55.33-.22.07-.43.11-.64.11-.32 0-.63-.05-.93-.13-.31-.09-.6-.21-.87-.36l-.15 1.44c.38.1.71.17.99.23.29.05.64.08 1.05.08.54 0 1.04-.08 1.49-.24.45-.16.81-.42 1.08-.77s.41-.82.42-1.4c-.02-.65-.2-1.15-.54-1.47-.35-.33-.75-.58-1.2-.74-.45-.17-.86-.33-1.2-.5-.35-.17-.53-.42-.55-.75.02-.43.16-.72.42-.88.26-.16.54-.24.83-.23.28 0 .56.03.83.09.27.06.54.14.79.25l.17-1.32z"/>
    <path fill="#004B88" fill-rule="evenodd" d="M157.6 18.42c0-.46.12-.86.36-1.2.24-.35.61-.53 1.11-.54.5.02.87.2 1.12.54.24.34.37.74.37 1.21 0 .33-.04.66-.12.96-.09.31-.24.56-.45.76-.22.2-.52.3-.91.31-.38-.01-.68-.11-.9-.31-.21-.2-.36-.46-.45-.76-.09-.32-.14-.64-.13-.97m-1.6.19c0 .57.12 1.08.36 1.54.24.46.59.82 1.05 1.09.46.27 1.01.4 1.66.41.65-.01 1.21-.14 1.67-.41.46-.27.81-.63 1.05-1.09.24-.46.36-.97.36-1.54-.01-.65-.14-1.21-.41-1.67s-.63-.82-1.1-1.07c-.46-.25-.99-.37-1.57-.38-.58 0-1.11.13-1.57.38-.46.25-.82.6-1.09 1.07-.26.46-.4 1.02-.41 1.67" clip-rule="evenodd"/>
    <path fill="#004B88" d="M168.72 15.63h-1.53v2.88c0 .26-.03.54-.1.84-.07.3-.21.56-.4.77-.2.22-.48.33-.84.34-.32-.01-.55-.1-.69-.28-.14-.18-.23-.39-.26-.65s-.05-.51-.04-.76v-3.14h-1.53v3.71c0 .68.15 1.23.48 1.65.32.42.83.64 1.52.66.4 0 .76-.09 1.09-.25.32-.17.6-.39.84-.68h.02v.8h1.45v-5.89zm2.05 4.11c0 .59.16 1.05.48 1.39.32.34.78.51 1.38.52.23 0 .43-.01.62-.03.18-.02.36-.06.51-.1l-.05-1.21c-.08.05-.18.09-.3.12s-.25.04-.39.04c-.28-.01-.48-.11-.58-.3-.1-.19-.15-.41-.14-.67v-2.74h1.36v-1.12h-1.36v-1.67l-1.53.49v1.18h-1.13v1.12h1.13v2.98zm3.9 1.76h1.53v-2.88c0-.26.03-.54.1-.84.07-.3.21-.56.4-.77.2-.22.48-.33.84-.34.32.01.55.1.69.28.14.18.23.39.26.65s.05.51.04.76v3.14h1.53v-3.7c0-.68-.15-1.23-.48-1.65-.32-.42-.83-.64-1.52-.66-.4 0-.76.09-1.08.25-.32.17-.57.39-.77.68h-.02v-3.48h-1.53v8.56z"/>
    <path fill="#004B88" fill-rule="evenodd" d="M184.06 21.5h1.65l.7-1.82h3.23l.68 1.82h1.77l-3.13-7.96h-1.8l-3.1 7.96zm5.14-3.08h-2.33l1.15-3.29h.02l1.16 3.29z" clip-rule="evenodd"/>
    <path fill="#004B88" d="M198.36 15.63h-1.53v2.88c0 .26-.03.54-.1.84-.07.3-.21.56-.4.77-.2.22-.48.33-.84.34-.32-.01-.55-.1-.69-.28-.14-.18-.23-.39-.26-.65s-.05-.51-.04-.76v-3.14h-1.53v3.71c0 .68.15 1.23.48 1.65.32.42.83.64 1.52.66.4 0 .76-.09 1.09-.25.32-.17.6-.39.84-.68h.02v.8h1.45v-5.89zm5.13.08c-.23-.05-.48-.1-.74-.15-.26-.04-.57-.07-.92-.07-.41 0-.78.06-1.13.19-.35.13-.63.33-.84.6-.22.27-.33.61-.33 1.04.01.52.15.89.42 1.12.26.23.57.39.91.49.35.09.65.2.91.3.26.11.4.3.42.58-.02.28-.14.47-.36.57-.22.1-.44.15-.65.14-.26 0-.52-.04-.77-.1-.25-.07-.5-.16-.73-.28l-.09 1.26c.28.08.57.14.86.18.29.05.58.07.88.07.42 0 .82-.06 1.19-.19s.68-.34.91-.62c.23-.28.36-.65.36-1.1-.01-.52-.15-.9-.42-1.15-.26-.25-.57-.42-.91-.53-.35-.11-.65-.21-.91-.31s-.4-.26-.42-.48c.01-.25.11-.42.3-.51.19-.1.39-.14.61-.14.27 0 .51.02.72.07.21.04.42.11.65.19l.08-1.17zm1.95 4.03c0 .59.16 1.05.48 1.39.32.34.78.51 1.38.52.23 0 .43-.01.62-.03.18-.02.36-.06.51-.1l-.05-1.21c-.08.05-.18.09-.3.12s-.25.04-.39.04c-.28-.01-.48-.11-.58-.3-.1-.19-.15-.41-.14-.67v-2.74h1.36v-1.12h-1.36v-1.67l-1.53.49v1.18h-1.13v1.12h1.13v2.98zm3.94 1.76h1.53v-2.16c-.01-.3.01-.63.05-1s.15-.69.32-.97c.18-.27.47-.42.88-.43.14 0 .27.01.39.03.12.02.22.05.29.09v-1.54c-.08-.02-.16-.04-.24-.04-.08-.01-.16-.01-.23-.01-.31.01-.57.1-.81.26-.23.17-.42.36-.56.59-.14.23-.22.43-.24.63h-.02v-1.33h-1.36v5.88z"/>
    <path fill="#004B88" fill-rule="evenodd" d="M214.84 19.8c.01-.3.1-.52.29-.67.18-.15.41-.24.67-.29.26-.05.51-.07.74-.06h.66c0 .23-.02.45-.07.65s-.13.39-.25.56c-.12.16-.27.29-.45.38-.18.09-.39.14-.62.14-.28 0-.51-.06-.69-.17s-.28-.29-.28-.54m-.78-2.55c.26-.2.54-.35.85-.46.31-.11.63-.17.96-.17.45-.01.78.09 1 .28.22.19.33.52.32.99h-.85c-.33 0-.66.02-1.01.06-.35.05-.67.14-.97.28-.3.14-.54.35-.72.62-.18.27-.28.62-.28 1.06.01.37.11.69.3.95s.45.46.76.59c.31.14.64.2.99.2.36 0 .7-.09 1.04-.26.33-.17.59-.43.78-.75h.02c0 .1.01.23.02.39s.02.32.05.48h1.35c-.02-.23-.03-.45-.04-.66l-.03-.65c-.01-.21-.01-.44-.02-.68 0-.24-.01-.5-.01-.8v-.75c.01-.86-.19-1.49-.59-1.89-.4-.4-1.05-.59-1.94-.59-.33 0-.68.04-1.04.12-.36.08-.7.19-1 .33l.06 1.31z" clip-rule="evenodd"/>
    <path fill="#004B88" d="M220.1 12.95h1.53v8.56h-1.53z"/>
    <path fill="#004B88" fill-rule="evenodd" d="M223.23 14.55h1.53V13.1h-1.53v1.45zm0 6.95h1.53v-5.88h-1.53v5.88zm4.19-1.7c.01-.3.1-.52.29-.67.18-.15.41-.24.67-.29.26-.05.51-.07.74-.06h.66c0 .23-.02.45-.06.65-.05.2-.13.39-.25.56-.12.16-.27.29-.45.38-.18.09-.39.14-.62.14-.28 0-.51-.06-.69-.17-.19-.1-.28-.29-.29-.54m-.77-2.55c.26-.2.54-.35.85-.46.31-.11.63-.17.96-.17.45-.01.78.09 1 .28.22.19.32.52.32.99h-.84c-.33 0-.66.02-1.01.06-.35.05-.67.14-.97.28-.3.14-.54.35-.72.62-.18.27-.28.62-.28 1.06.01.37.11.69.3.95s.45.46.76.59c.31.14.64.2.99.2.36 0 .7-.09 1.04-.26.33-.17.59-.43.78-.75h.02c0 .1.01.23.02.39s.02.32.05.48h1.35c-.02-.23-.03-.45-.04-.66l-.03-.65c-.01-.21-.01-.44-.02-.68s-.01-.5-.01-.8v-.75c.01-.86-.19-1.49-.59-1.89-.4-.4-1.05-.59-1.94-.59-.33 0-.68.04-1.04.12-.36.08-.7.19-1 .33l.05 1.31z" clip-rule="evenodd"/>
  </g>
  <g id="icon">
    <path fill="#808285" d="M31.92 20.47c-6.79.25-12.1 5.96-11.85 12.76s5.96 12.1 12.76 11.85 12.1-5.96 11.85-12.75c-.25-6.8-5.97-12.1-12.76-11.86m-.01-.36c6.99-.26 12.87 5.21 13.13 12.2.26 7-5.21 12.87-12.2 13.13-6.99.26-12.87-5.21-13.13-12.2-.26-6.99 5.2-12.87 12.2-13.13"/>
    <path fill="#808285" fill-rule="evenodd" d="M31.4 39.35c.02.11-.13.2-.2.27-.31.39-.78.62-1.07 1.01-.07.06-.11.17-.22.18-.16-.2-.07-.28.01-.38.42-.4.92-.76 1.4-1.1l.08.02zm2.68.93c.26.35.57.59.81.94.02.11-.03.19-.09.27-.54-.66-1.1-1.08-1.45-1.7-.08-.13-.28-.24-.23-.41.44.27.7.56.96.9m-5.88-.55c.02.11-.03.21-.08.29-.28.2-.72.16-1.02.08-.06-.05-.08-.15-.07-.23.18-.37.66-.16.98-.21l.19.07zm3.38-.2c-.09.23-.29.43-.43.64-.2.29-.57.48-.73.79-.09.12-.14.35-.35.32-.12-.24.16-.42.26-.6.36-.41.81-.77 1.19-1.17l.06.02zm-2.45.17c.06.17-.01.3-.14.4-.21.03-.47.09-.65-.07.05-.15.1-.35.29-.39.16.01.37-.03.5.06m1.22.01c-.24.2-.36.6-.69.44-.09-.26.04-.42.19-.48.14-.02.36-.05.5.04m3.75 1.31c.18.16.34.4.29.62-.29-.03-.33-.25-.47-.4-.38-.48-.74-1-.95-1.56.47.32.72.88 1.13 1.34m-2.33-1.34c-.13.5-.48.93-.75 1.38-.13.16-.25.33-.32.52-.25-.1-.2-.22-.14-.3.36-.56.72-1.11 1.16-1.66l.05.06zm.23.04c-.04.48-.25.9-.35 1.36-.16.25-.25.52-.29.81-.3-.01-.39-.16-.32-.29.07-.23.19-.44.24-.67.21-.43.44-.85.62-1.28l.1.07zm3.23-.06c.09.3.02.42-.08.48-.35.18-.54-.27-.79-.39l.87-.09zm1.2.11c.01.15-.14.21-.22.31-.15.06-.34.09-.47.04-.08-.07-.12-.17-.1-.26.35-.22.67-.29.79-.09m-3.39.32c.21.58.74 1.04.74 1.66-.36.09-.35-.12-.41-.29-.21-.54-.53-1.04-.65-1.61.17-.25.24.14.32.24m4.59-.38c.04.09.01.19-.01.27-.27.3-.7.2-1.1.19.04-.33.23-.48.46-.53.21.01.46-.02.65.07m-5.35.29c.02.49.02.97 0 1.48-.13.18-.29.3-.42.47-.26-.24-.11-.49-.08-.76.06-.44.27-.83.37-1.25l.13.06zm.4.04c.19.58.31 1.15.35 1.79-.22.16-.23-.01-.35-.08-.51-.3-.17-1-.24-1.47.03-.11-.03-.28.08-.36l.16.12zm-1.7-.72c-.06.04-.13.08-.2.1-.4-.02-.85.05-1.22-.01.02-.03.04-.07.06-.1l-1.38.01c-.37.28-.96-.02-1.31.28-.11.12-.18.29-.12.46.18.37.66.28 1.04.27.19.05.37.23.58.13.16-.27.34.04.53.04.21.03.32-.14.68-.08-.22.27-.4.59-.54.91-.08.29.35.25.3.54.05.28.5.13.51.46.08.19.31.1.46.14.17.03.2.26.36.37.11.01.25-.03.36-.03.17-.01.23.16.35.25l.39-.13c.25.01.3.27.47.38.27.1.33-.3.58-.33l.48.21c.15-.1.16-.31.31-.39.13-.04.27-.01.38.04.17.05.18-.16.3-.24.13-.04.27.01.42-.02.11-.1.11-.21.16-.33.07-.15.24-.14.39-.19.05-.23.27-.29.46-.4.01-.27-.15-.49-.31-.69-.06-.19-.22-.35-.18-.64.17-.04.27.09.39.2.17.05.36-.03.49-.17.15-.1.23.09.35.16.13.07.3-.01.43-.09.2-.23.61 0 .81-.3.07-.1.09-.23.1-.36-.2-.37-.68-.3-1.04-.32-.06-.06-.12-.1-.19-.13h-1.8l-.9.08c-.03-.03-.07-.06-.1-.09l-.26.01c.52.45 1.07.96 1.52 1.52-.24.12-.33-.1-.44-.19-.41-.42-.85-.9-1.23-1.32l.04-.01h-.62l-.01.01c-.11.14-.23.43-.48.38-.16-.11-.29-.24-.4-.39h-.97z" clip-rule="evenodd"/>
    <path fill="#808285" fill-rule="evenodd" d="M28.24 39.32c.02-.01.03-.02.04-.03.41-.13.86.14 1.17-.21.4-.39.89-.72 1.23-1.15.07-.31.28-.6.2-.9l-.29-1.13c-.43.24-.22.71-.36 1.06-.05.15-.14.31-.27.43-.19.03-.35-.18-.54-.08-.17.04-.29.32-.47.17-.18-.11-.3-.41-.54-.3-.19.08-.27.41-.48.27-.12-.11-.18-.32-.38-.35-.17-.03-.24.14-.41.13-.27-.12-.35-.63-.72-.35-.13.01-.24.1-.36.03-.14-.17-.15-.39-.34-.48-.21-.03-.43.11-.63-.01-.08-.17-.02-.4-.25-.47-.32.01-.66.12-.99.05-.1-.15.08-.29.08-.46.03-.09.12-.18.12-.28h6.86c-.05.16-.12.31-.16.46 0 .13.03.23.03.34.1.15.07.4.19.54.08.05.15-.08.23-.03-.04.34.01.7.19 1 .04.15.16.28.24.41-.07.08-.1-.05-.22.1.14.43.27.87.54 1.23h-.97c.13-.1.24-.22.38-.28.07-.1.09-.21.06-.32-.08-.15-.07-.42-.28-.45-.48.38-1.1.4-1.52 1.04l-1.38.02zm5.58-4.06c.05.08.08.17.08.27.28.31.02.68 0 1.04-.15.52-.29.98-.56 1.31-.05.21.05.23.01.34-.12.38-.23.78-.52 1.09h.62l.09-.02.02.02h.26c-.16-.14-.35-.26-.45-.43-.01-.27.17-.48.22-.73.15-.14.19.09.33.14.23.11.52.11.72.34.24.22.45.4.63.64l-.45.04h1.8c-.35-.15-.81.04-1.13-.18-.51-.47-1.06-1.04-1.42-1.54-.28-.47.1-.94.12-1.41.04-.06.09-.17.36-.03.13.47.12 1.08.62 1.35.19.03.26-.18.45-.19.15.05.24.18.33.29.17.01.26-.22.41-.26.21-.08.33.16.54.15.07-.14.18-.24.29-.35.21-.05.33.16.5.19.17-.08.16-.35.33-.47.17-.04.32.03.44.1.29.12.22-.26.37-.38.2-.29.55-.02.83-.05.07-.06.15-.14.16-.23.06-.5.58-.23.88-.34.12-.23-.02-.51.13-.7h-7.01z" clip-rule="evenodd"/>
    <path fill="#808285" fill-rule="evenodd" d="M28.69 26.73c.01.17.01.27.04.44-.02.34-.01.7-.19.99-.07-.36-.21-.68-.32-1.01.09-.17.19-.44.42-.47l.05.05zm8.05.62c.05.26-.17.46-.16.75.19-.1.15-.42.4-.38.08.05.02.15.05.23-.16.25-.23.58-.43.83-.23-.64-.25-1.15-.17-1.67.23.05.27.15.31.24m-8.48.39c.03.4.15.57.08.76-.28-.31-.34-.56-.47-.78.03-.12.05-.23.16-.31.19-.01.15.22.23.33m-.31.48c.12.24.42.46.31.75-.15.44-.12.97-.06 1.43-.26.16-.49.04-.67-.13-.02-.13-.04-.21-.05-.36.28-.03.39.14.48.04l-.51-.55c.24-.16.38-.05.53-.02-.14-.26-.39-.35-.48-.55.02-.1.01-.25.1-.29.13-.01.1.15.23.16-.03-.21-.36-.48-.1-.68l.22.2zm9.39-.09c.06.19-.12.27-.21.41l-.33.46c-.15-.05-.1-.15-.07-.23.1-.27.3-.51.49-.72l.12.08zm.18.79l-.68.69c-.2-.26-.03-.38.02-.51.13-.16.33-.41.53-.51.14.02.09.21.13.33m.07.51c.04.15-.07.25-.12.35-.21.12-.43.15-.66.2-.1-.07.03-.15.05-.23.2-.16.4-.36.67-.37l.06.05zm-.2.59c-.14.35-.38.41-.58.38.12-.3.34-.52.58-.38m-5.73.46c.07.26.19.54.03.78-.28.26-.54-.11-.79-.2.05-.14.24-.08.38-.05.09.01.21.09.31.05.12-.33-.3-.5-.46-.73.18-.12.38.02.53.15m-2.49.93c.07.36.42.55.62.85.11.3.35.62.21.96-.11.18-.25.37-.5.34-.1-.05-.12-.17-.12-.26-.12-.09-.2.1-.38.07-.24-.33-.05-.43.02-.61-.19.03-.33.28-.58.21-.1-.03-.18-.13-.12-.24-.01-.15.12-.31.23-.41-.21.03-.49.21-.65-.01-.04-.13.07-.19.16-.27.13-.04.26-.12.39-.19-.33-.22-.47-.36-.46-.53.03-.12.19-.08.26-.09.15.03.27.22.45.21.11-.1-.06-.17-.05-.27-.06-.13-.14-.24-.07-.4.23.03.25.18.37.16 0-.11-.12-.3-.01-.38.24.21.14.6.23.86m7.03-.7c0 .11-.07.23-.01.32.11-.08.22-.26.37-.15.06.09-.01.19-.03.29-.05.15-.34.17-.22.33.19.01.33-.24.55-.08-.1.33-.25.37-.32.49.25.03.54.13.62.4-.37.24-.57.1-.77.14.18.16.45.29.44.57-.39.11-.57-.09-.77-.18.1.21.24.35.23.54-.11.18-.27.01-.38-.02-.12-.05-.18-.24-.31-.22-.01.15.32.31.05.42-.23.05-.4-.08-.52-.25-.04-.13-.12-.26-.09-.42.19-.42.54-.82.73-1.24.14-.31.17-.65.29-.96l.14.02zm-3.85.3c-.14.27-.22.2-.28.16-.03-.21-.01-.27.07-.29l.21.13zm-8.29 4.25c0-.02-.01-.05-.02-.07-.18-.17-.38-.04-.59-.07-.14-.05-.32-.01-.42-.16-.01-.27.11-.5.22-.73-.13-.3-.48-.08-.75-.14-.14-.05-.33-.08-.43-.21-.01-.25.27-.41.32-.64-.1-.17-.31-.12-.45-.23-.12-.11-.44-.08-.35-.31.12-.33.44-.49.64-.77-.11-.28-.45-.38-.65-.64.18-.37.43-.57.68-.73.07-.08-.01-.19-.07-.26-.18-.24-.43-.38-.57-.64.22-.2.5-.34.8-.39-.07-.41-.33-.61-.43-.86.39-.17.87-.01 1.25-.2-.21-.41-.44-.61-.64-.91.03-.13.19-.05.28-.09.34-.05.67.09.99.1-.3-.41-.64-.78-.64-1.23.74.09 1.25.51 1.8.79-.06-.63-.84-1.05-.82-1.7.81.35 1.43.73 1.98 1.22-.21-.58-.25-1.11-.57-1.5-.14-.24-.13-.55-.14-.81.17-.04.25.18.41.23.34.39.66.77.88 1.22.34-.03.26-.26.17-.44-.1-.24-.15-.47-.16-.76-.15-.37-.12-.68-.02-1.06.42.12.43.42.57.64.15.36.22.77.33 1.15.08.15.01.3.15.39.27-.03.06-.31.12-.48 0-.44.1-.95.01-1.39-.09-.43.08-.84.38-1.12l.08.02c.07.32.14.7.11 1.02.08.23-.04.42.08.61.25.03.25-.35.5-.34.08.17.03.42.12.58.03.25.02.51-.01.78.02.17-.02.38-.04.57-.09.65-.2 1.28-.31 1.93-.33.73-.05 1.64.11 2.37.26.43.43.9.47 1.43.21.43.63.66.71 1.13.08.11.23.11.35.08.35-.26.55.4.88.08.2-.18.33-.43.3-.73-.06-.19-.05-.45-.29-.54-.29-.18-.58-.36-.84-.6.11-.14.21-.05.3-.05.21.01.4.06.61.09-.22-.39-.52-.63-.83-.75.09-.12.3-.07.45-.05.79.22 1.54.53 2.19 1.06.36.4.58.83.64 1.36.11.38.57.13.85.25.55-.61.98-1.16 1.03-1.86.13-.71.27-1.4.51-2.07-.1-1.73-.28-3.41-.17-5.13.15-.1.16.17.29.22.21-.52.14-.99.45-1.27.29.1.3.44.37.71-.04.48 0 .95.05 1.4.3-.47.4-1.12.94-1.42.07.49.01.84.03 1.24-.05.25-.23.45-.3.7-.11.17-.1.44-.02.63.1.09.19-.08.24-.16.3-.54.72-1.13 1.27-1.51.31.05.26.24.24.35-.03.25-.21.45-.24.67-.33.3-.47.64-.65 1.01-.07.1-.22.26-.12.4.19-.06.3-.22.42-.38.38-.6 1.01-.93 1.61-1.18.11.43-.26.64-.34 1-.16.4-.51.74-.88.95-.09.1-.22.22-.21.35.1.13.23-.03.32-.07.61-.44 1.26-.83 2-.97.2.28-.04.44-.21.58-.28.2-.59.44-.81.73.2.2.38.02.57-.04.32-.18.77-.22 1.12-.15-.21.39-.47.61-.67.9.08.22.34.01.53.04.25.03.55.04.71.26-.24.31-.5.42-.7.63.22.3.5.23.72.35.1.05.23.13.29.22-.24.29-.61.42-.71.75.14.18.39.19.58.34.16.15.43.21.49.44-.28.18-.54.34-.84.47-.11.06-.09.19-.01.25.18.18.39.31.53.49-.03.17-.24.2-.37.28-.2.1-.43.11-.6.31.02.17.2.28.28.41.06.13.14.26.17.43-.38.13-.7.12-.98.15-.24.16.07.38.12.57 0 .11.18.24.03.34-.3.07-.61.04-.89.05-.04.03-.08.05-.1.09h-7.01c-.06-.12-.13-.23-.13-.37-.17-.58-.16-1.15-.06-1.73.08-.35.05-.69-.04-1.03-.04-.09-.07-.21-.11-.3-.1-.17-.24-.41-.47-.38-.19.06-.22.27-.23.44-.06.46-.41.85-.86.98-.2.12-.55-.02-.68.22.11.39-.03.8-.05 1.16-.07.15-.07.31-.13.46-.02.18-.08.36-.14.54h-6.87zm-8.67.12l-.17-1.37 1.79.43-1.62.94zm-.16.09l-.86.5c-.1.06-.3.15-.36.16-.38.05-.23-.45-.41-.43-.06.01-.08.05-.07.12.03.28.08.54.11.81s.05.54.09.81c.01.07.02.11.1.1.15-.02-.09-.32.3-.54l3.11-1.85c.87-.51 1.1-.54 1.09-.63-.01-.09-.1-.04-.43-.15-.43-.14-.43-.26-.54-.24-.08.01-.2.19-.24.19-.06.01-.33-.08-2.52-.63-.5-.13-.89-.3-1.07-.46-.19-.17-.15-.44-.28-.43-.06.01-.08.03-.07.1.03.24.07.46.1.68.06.46.06.63.08.77.01.07.01.11.09.1.17-.02-.07-.56.63-.65.2-.02.42.04.98.15l.17 1.52z" clip-rule="evenodd"/>
    <path fill="#808285" d="M15.8 39.54c-.7.37-.96 1.18-.37 2.3.5.94 1.27 1.16 2.14.69l1.91-1.01c.53-.28.9-.19 1.1 0 .13.13.15.22.23.17.06-.03.05-.07 0-.17-.11-.22-.21-.37-.35-.63-.13-.25-.21-.42-.32-.64-.05-.1-.08-.13-.14-.1-.09.05-.02.1.01.29.05.27-.09.63-.62.91l-1.92 1.02c-.74.4-1.37.26-1.75-.45-.35-.66-.19-1.3.46-1.65l2.63-1.4c.42-.22.48.39.64.3.08-.04.07-.08.02-.18-.11-.21-.21-.36-.4-.72-.19-.36-.26-.52-.38-.74-.05-.1-.08-.13-.16-.09-.15.08.31.48-.11.7l-2.62 1.4zm3 6.8c-.05.05-.03.09-.01.1.1.08.17-.16.39.01.14.11.31.61.7.93.85.71 1.73.47 2.21-.1 1.1-1.31-1.12-2.6-.29-3.59.29-.34.72-.38 1.12-.05.59.49.43 1.25.1 2.02-.03.07-.08.15-.04.19.03.03.08.03.12-.03.06-.07.35-.46.92-1.27.04-.06.05-.09.01-.12-.1-.08-.18.15-.33.02-.2-.17-.2-.54-.67-.93-.6-.5-1.49-.45-1.96.11-1.11 1.32 1.2 2.51.28 3.6-.31.37-.81.49-1.34.05-.69-.58-.4-1.49.07-2.23.08-.13.11-.18.06-.22-.03-.02-.07-.03-.11.02l-1.23 1.49zm9.21.31c.65.22 1.01 1.01 1.07 1.63.02.18.02.28.06.29.05.02.07-.01.08-.03.03-.08.04-.25.06-.39l.17-1.16c.01-.04.03-.13-.03-.15-.04-.01-.06.01-.1.02-.05.01-.11.02-.25-.03l-2.79-.96c-.14-.05-.18-.09-.21-.13-.02-.04-.03-.07-.07-.08-.06-.02-.1.07-.11.1l-.58 1.02c-.07.12-.16.26-.19.34-.01.03-.01.06.04.07.04.01.1-.06.22-.19.44-.45 1.2-.85 1.85-.63l-1.33 3.87c-.15.44-.72.01-.77.18-.03.08.03.12.14.15.3.11.47.15.86.28.39.13.55.2.85.31.1.04.17.04.2-.04.06-.17-.65-.17-.5-.62l1.33-3.85z"/>
    <path fill="#808285" fill-rule="evenodd" d="M33.02 47.33l.4-.04c.65-.06 1.06.2 1.13 1.01.07.81-.29 1.16-1.02 1.23l-.31.03-.2-2.23zm-.46 4.16c.04.47-.54.29-.53.47.01.08.05.09.16.09.24-.02.41-.05.82-.09.41-.04.58-.04.82-.06.11-.01.15-.03.14-.11-.02-.18-.56.1-.6-.37l-.15-1.7.11-.01c.52-.05.67.1 1.22.97l.69 1.08c.61-.05 1.07-.08 1.17-.09.1-.01.13-.03.13-.1-.02-.18-.48.11-.83-.47l-.44-.75c-.4-.68-.71-.76-1.37-.78v-.01c.97-.16 1.6-.65 1.54-1.36-.05-.6-.63-1.2-1.95-1.08-.26.02-.53.06-.9.09-.41.04-.58.04-.82.06-.11.01-.15.03-.14.11.02.18.56-.1.6.37l.33 3.74zm7.9-3.4l-1.24.6-.18-1.84 1.42 1.24zm.13.12l.75.65c.09.07.24.23.27.29.17.34-.35.37-.28.53.03.06.07.06.14.03.25-.12.48-.25.73-.37.24-.12.5-.23.74-.35.06-.03.1-.06.07-.13-.07-.14-.27.19-.61-.11l-2.76-2.34c-.77-.66-.87-.87-.95-.83-.08.04-.01.11 0 .45.01.46-.1.49-.05.59.04.08.24.12.27.17.02.05.03.34.22 2.59.04.51.01.94-.09 1.16-.1.24-.37.29-.31.4.02.05.05.07.12.04.22-.11.41-.22.61-.31.42-.2.57-.26.7-.33.07-.03.1-.05.06-.12-.07-.15-.51.25-.82-.38-.09-.18-.1-.4-.17-.97l1.36-.66z" clip-rule="evenodd"/>
    <path fill="#808285" d="M45.21 46.38c.34.32-.21.58-.08.7.06.06.1.04.17-.04.16-.18.27-.31.55-.61 1.03-1.11 1.45-1.53 1.81-1.92l-.97-1.29c-.06-.08-.11-.13-.14-.15-.03-.02-.06-.04-.09 0s-.02.07.03.17c.37.62.6 1.64-.13 2.42-.23.25-.43.31-.72.04L43 43.24c-.35-.32.2-.58.08-.7-.06-.06-.1-.04-.17.04-.16.18-.27.31-.55.61s-.41.42-.57.59c-.07.08-.09.12-.03.18.13.12.35-.45.69-.13l2.76 2.55zm3.98-5.51c.43.2-.02.62.14.69.08.04.11.01.15-.09.1-.22.16-.38.34-.75s.26-.53.36-.74c.05-.1.05-.14-.03-.18-.16-.07-.19.53-.62.34l-3.4-1.59c-.43-.2.02-.62-.14-.69-.08-.04-.11 0-.15.1-.1.22-.16.38-.34.75-.17.37-.26.52-.36.74-.05.1-.05.14.03.18.16.07.2-.53.62-.33l3.4 1.57z"/>
    <path fill="#808285" fill-rule="evenodd" d="M49.59 34.39l-.17 1.37-1.64-.85 1.81-.52zm.18-.04l.95-.27c.11-.04.33-.08.39-.07.38.05.12.49.29.52.06.01.09-.03.1-.1.03-.28.05-.54.09-.81.03-.27.08-.54.11-.81.01-.07.01-.12-.07-.13-.15-.02.01.33-.42.46l-3.46 1.04c-.97.29-1.2.26-1.21.35-.01.09.09.07.38.25.39.24.36.35.46.37.08.01.24-.14.29-.13.05.01.3.15 2.29 1.22.45.24.79.51.93.71.14.21.04.47.17.48.06.01.09-.01.1-.08.03-.24.04-.46.07-.68.06-.46.09-.62.11-.76.01-.07.01-.11-.06-.12-.17-.02-.07.56-.77.48-.2-.02-.39-.14-.91-.39l.17-1.53z" clip-rule="evenodd"/>
    <path fill="#808285" d="M20.95 24.09c.05.05.09.03.1.01.09-.1-.16-.18.04-.39.13-.13.64-.3.99-.67.78-.84.6-1.74.05-2.25-1.25-1.16-2.71 1.04-3.66.16-.32-.3-.34-.75.02-1.14.54-.58 1.3-.39 2.05-.02.07.04.15.09.19.05.03-.03.03-.08-.02-.12-.07-.06-.44-.37-1.22-.98-.06-.05-.09-.06-.13-.02-.09.1.14.18 0 .33-.19.2-.56.18-.98.64-.55.59-.56 1.5-.02 2 1.27 1.18 2.62-1.12 3.66-.15.35.33.44.85-.04 1.36-.63.68-1.54.35-2.25-.15-.13-.09-.18-.12-.22-.07-.02.03-.03.07.01.11l1.43 1.3z"/>
    <path fill="#808285" fill-rule="evenodd" d="M24.51 15.28c-1.08.48-1.93 1.87-1.29 3.31.64 1.44 2.23 1.74 3.32 1.25 1.09-.48 1.93-1.87 1.29-3.31-.64-1.43-2.24-1.73-3.32-1.25m2.47 1.63c.65 1.45.33 2.4-.51 2.78-.84.38-1.76-.03-2.4-1.48-.65-1.45-.33-2.4.51-2.78.84-.37 1.75.03 2.4 1.48" clip-rule="evenodd"/>
    <path fill="#808285" d="M30.39 17.22c.01.79.64 1.39 1.94 1.37 1.1-.02 1.66-.61 1.64-1.59l-.04-2.16c-.01-.6.24-.89.51-.98.18-.06.27-.03.26-.13 0-.06-.04-.08-.16-.07-.25 0-.44.02-.74.03-.3.01-.49-.01-.74 0-.11 0-.15.02-.15.08 0 .1.09.07.27.12.27.08.53.36.54.96l.04 2.17c.01.84-.4 1.34-1.23 1.36-.77.01-1.29-.42-1.3-1.16l-.05-2.98c-.01-.47.58-.26.58-.43 0-.08-.04-.1-.16-.1-.25.01-.43.02-.85.03-.42.01-.61 0-.85 0-.11 0-.15.02-.15.1 0 .18.58-.06.59.41l.05 2.97zm9.38-1.86c.66.27.99 1.08 1.03 1.71.01.18.01.28.05.29.04.02.07 0 .08-.03.03-.08.06-.25.08-.38l.22-1.15c.01-.04.04-.13-.02-.15-.04-.02-.06.01-.11.02s-.12.01-.26-.04l-2.82-1.14c-.14-.05-.18-.11-.21-.15-.02-.04-.02-.07-.06-.09-.06-.02-.1.06-.12.1l-.64.98c-.08.11-.18.25-.21.33-.01.03-.01.06.04.08.04.02.11-.05.24-.18.47-.43 1.27-.78 1.93-.51l-1.53 3.8c-.18.44-.74-.03-.8.13-.03.08.03.12.13.16.31.12.48.18.87.34.39.16.56.24.86.36.11.04.17.06.21-.02.07-.16-.66-.21-.49-.65l1.53-3.81zm5.12 6.17l-1.34 1.39c-.33.34-.59-.23-.71-.1-.06.06-.04.1.04.18.18.17.32.29.62.58s.42.43.6.6c.08.08.12.1.18.04.12-.13-.46-.37-.13-.71l2.61-2.7c.33-.34.59.23.71.1.06-.06.04-.1-.04-.18-.18-.17-.32-.29-.62-.58s-.43-.43-.6-.6c-.08-.08-.12-.1-.18-.04-.12.13.45.37.13.71L45 21.41 43.54 20l1.15-1.19c.33-.34.59.23.71.1.06-.06.04-.1-.04-.18-.18-.17-.32-.29-.62-.58s-.42-.43-.6-.6c-.08-.08-.12-.1-.18-.04-.12.13.45.37.13.71l-2.61 2.7c-.33.34-.59-.23-.71-.1-.06.06-.04.1.04.18.18.17.32.29.62.58s.42.43.6.6c.08.08.12.1.18.04.12-.13-.45-.37-.13-.71l1.34-1.39 1.47 1.41z"/>
    <path fill="#004B88" d="M31.73 11.97c-9.86.36-17.88 7.5-19.73 16.78l-2.13-.4C11.97 17.76 21.3 9.79 32.5 9.79c11.06 0 20.29 7.78 22.54 18.16l-2.13.44c-2.1-9.7-10.91-16.8-21.18-16.42"/>
    <path fill="#ED174C" d="M53.35 34.13c.04-.67.05-1.35.02-2.04-.04-1.13-.17-2.24-.38-3.31l2.13-.44c.29 1.46.44 2.97.44 4.52 0 .48-.01.96-.04 1.43l-2.17-.16z"/>
    <path fill="#FCAF17" d="M53.1 36.34c.1-.6.18-1.21.22-1.82l2.16.15c-.05.69-.14 1.38-.25 2.05l-2.13-.38z"/>
    <path fill="#004B88" d="M12.03 37.09c2.02 9.82 10.88 17.03 21.23 16.65 9.94-.37 18.01-7.62 19.77-17.01l2.14.38c-2 10.7-11.39 18.8-22.67 18.8-11.14 0-20.44-7.9-22.59-18.41l2.12-.41z"/>
    <path fill="#FCAF17" d="M11.7 34.88c.06.62.15 1.22.26 1.82l-2.13.42c-.13-.67-.22-1.36-.29-2.05l2.16-.19z"/>
    <path fill="#ED174C" d="M11.93 29.13c-.26 1.45-.37 2.95-.32 4.48.01.29.03.58.05.87l-2.16.19c-.05-.6-.07-1.21-.07-1.83 0-1.41.13-2.79.37-4.12l2.13.41z"/>
  </g>
</svg>
