<?xml version="1.0" encoding="utf-8"?>
<!-- Generator: Adobe Illustrator 22.1.0, SVG Export Plug-In . SVG Version: 6.00 Build 0)  -->
<svg version="1.1" id="Layer_1" xmlns="http://www.w3.org/2000/svg" xmlns:xlink="http://www.w3.org/1999/xlink" x="0px" y="0px"
	 viewBox="0 0 518.4 77.6" style="enable-background:new 0 0 518.4 77.6;" xml:space="preserve">
<style type="text/css">
	.st0{fill:#6C80AF;}
</style>
<g id="XMLID_126_">
	<path id="XMLID_142_" class="st0" d="M89.5,76.4V71c-1.9,1.9-4.1,3.5-6.7,4.7c-2.6,1.3-5.4,1.9-8.4,1.9c-2.2,0-4.5-0.3-6.8-1
		c-2.3-0.7-4.3-1.7-6.1-3.2c-1.8-1.5-3.3-3.4-4.5-5.8c-1.2-2.4-1.7-5.2-1.7-8.6c0-3.1,0.6-5.7,1.7-8c1.1-2.2,2.7-4.1,4.6-5.6
		c2-1.5,4.3-2.5,6.9-3.2c2.7-0.7,5.6-1,8.7-1c5,0,9.1,0.7,12.3,2.1v-4.1c0-3-0.9-5.3-2.7-6.9c-1.8-1.6-4.3-2.4-7.7-2.4
		c-2.9,0-5.4,0.3-7.7,0.8c-2.3,0.6-4.5,1.4-6.7,2.6l-4.2-8.2c2.7-1.6,5.5-2.8,8.5-3.7c3-0.8,6.5-1.3,10.4-1.3
		c6.1,0,11.1,1.5,14.9,4.6c3.8,3,5.7,7.7,5.7,13.9v37.7H89.5z M89.5,52.9c-1.5-0.8-3.2-1.4-5.2-1.8c-2-0.4-4.5-0.6-7.4-0.6
		c-3.5,0-6.3,0.7-8.3,2.2c-2,1.5-3,3.5-3,6c0,2.7,0.9,4.9,2.6,6.6c1.7,1.7,4.4,2.5,8,2.5c2.9,0,5.6-0.7,7.9-2.2
		c2.3-1.5,4.1-3.1,5.4-4.8V52.9z"/>
	<path id="XMLID_51_" class="st0" d="M128.3,9.7c-1.8,0-3.1,0.4-3.9,1.2c-0.8,0.8-1.2,2.2-1.2,4.2v6.3h10.2v10.1h-10.2v45h-10.9v-45
		h-7.1V21.4h7.1v-7.2c0-2.5,0.4-4.6,1.1-6.4c0.7-1.8,1.7-3.2,3-4.3c1.3-1.1,2.8-1.9,4.4-2.4c1.7-0.5,3.5-0.7,5.5-0.7
		c1.4,0,2.8,0.1,4.2,0.3c1.4,0.2,2.7,0.4,3.9,0.8v9.4C132.2,10.1,130.1,9.7,128.3,9.7"/>
	<path id="XMLID_138_" class="st0" d="M182.2,47.8c0,1,0,1.9-0.1,2.8c-0.1,0.9-0.1,1.6-0.2,2.1h-36.4c0.3,2.7,0.8,4.9,1.7,6.8
		c0.8,1.9,1.9,3.4,3.1,4.7c1.3,1.2,2.7,2.1,4.2,2.7c1.5,0.6,3.1,0.9,4.8,0.9c2.3,0,4.4-0.4,6.3-1.2c1.9-0.8,3.8-1.8,5.6-3.3l6.4,6.9
		c-2.4,2.3-5.2,4.1-8.2,5.3c-3,1.3-6.6,1.9-10.8,1.9c-3.2,0-6.3-0.6-9.2-1.9c-2.9-1.3-5.4-3.1-7.6-5.6c-2.2-2.4-3.9-5.5-5.1-9
		c-1.3-3.6-1.9-7.6-1.9-12.2c0-4.7,0.6-8.8,1.8-12.4c1.2-3.6,2.8-6.6,4.9-9c2.1-2.4,4.6-4.2,7.6-5.5c3-1.3,6.2-1.9,9.8-1.9
		c3.9,0,7.3,0.7,10.2,2.2c2.9,1.5,5.3,3.5,7.2,6c1.9,2.5,3.4,5.5,4.3,8.8C181.7,40.6,182.2,44.1,182.2,47.8 M170.2,38.5
		c-0.5-1.7-1.3-3.1-2.4-4.4c-1-1.3-2.4-2.3-3.9-3c-1.6-0.7-3.5-1.1-5.7-1.1c-3.6,0-6.5,1.2-8.7,3.6c-2.1,2.4-3.4,5.8-3.9,10.2h25.6
		C171.1,41.9,170.8,40.1,170.2,38.5"/>
	<path id="XMLID_48_" class="st0" d="M244.8,76.4h-11.1L222.3,29c-0.1-0.6-0.3-1.4-0.5-2.4c-0.2-0.9-0.4-1.9-0.6-2.8
		c-0.2-0.9-0.4-1.8-0.6-2.7c-0.2-0.8-0.3-1.5-0.4-1.9c-0.1,0.4-0.2,1-0.4,1.9c-0.2,0.8-0.4,1.7-0.6,2.7c-0.2,0.9-0.4,1.9-0.6,2.8
		c-0.2,0.9-0.4,1.7-0.5,2.4l-11.9,47.4h-10.9L180.2,3h11.1l8.8,46.3c0.1,0.6,0.2,1.3,0.4,2.1c0.2,0.8,0.3,1.7,0.5,2.6
		c0.2,0.9,0.3,1.8,0.5,2.7c0.1,0.9,0.2,1.6,0.3,2.3c0.1-0.6,0.2-1.4,0.4-2.2c0.2-0.8,0.4-1.7,0.6-2.6c0.2-0.9,0.4-1.8,0.6-2.6
		c0.2-0.8,0.3-1.5,0.5-2.1L215.6,3h9.4l12,47.5c0.3,1,0.6,2.3,0.9,4c0.3,1.7,0.6,3.2,0.8,4.5c0.3-1.4,0.6-3,0.8-4.7
		c0.3-1.7,0.5-3,0.6-3.9L249.1,3h10.7L244.8,76.4z"/>
	<path id="XMLID_134_" class="st0" d="M306,48.6c0,4.5-0.6,8.6-1.9,12.2c-1.3,3.6-3,6.6-5.2,9.1c-2.2,2.5-4.9,4.4-7.9,5.7
		c-3,1.3-6.3,1.9-9.9,1.9c-3.5,0-6.7-0.7-9.6-2c-2.9-1.4-5.5-3.3-7.6-5.8c-2.2-2.5-3.9-5.5-5.1-9c-1.2-3.5-1.8-7.4-1.8-11.7
		c0-4.5,0.6-8.5,1.9-12.1c1.3-3.6,3-6.6,5.2-9.1c2.2-2.5,4.8-4.4,7.8-5.7c3-1.3,6.2-1.9,9.7-1.9c3.5,0,6.7,0.7,9.8,2
		c3,1.4,5.6,3.3,7.8,5.7s3.9,5.4,5.1,9C305.4,40.5,306,44.4,306,48.6 M295.1,49c0-5.7-1.2-10.2-3.7-13.5c-2.5-3.3-5.9-5-10.3-5
		c-4.1,0-7.4,1.7-9.7,5c-2.3,3.3-3.5,7.7-3.5,13.2c0,6.1,1.3,10.7,3.8,13.9c2.5,3.2,5.8,4.8,10,4.8c2,0,3.9-0.5,5.6-1.5
		c1.7-1,3.1-2.3,4.3-3.9c1.2-1.6,2.1-3.6,2.7-5.8C294.8,53.8,295.1,51.5,295.1,49"/>
	<path id="XMLID_45_" class="st0" d="M340.6,32.8c-1.2-0.6-2.4-1.1-3.7-1.5c-1.3-0.3-2.8-0.5-4.6-0.5c-3.4,0-6.1,1.2-8,3.6
		c-1.9,2.4-2.8,5.9-2.8,10.6v31.5h-10.9v-55h10.9v5.2c1.3-1.8,3-3.3,5.2-4.6c2.2-1.2,4.7-1.8,7.4-1.8c2.2,0,4.1,0.2,5.5,0.6
		c1.4,0.4,2.7,1,3.8,1.7L340.6,32.8z"/>
	<path id="XMLID_44_" class="st0" d="M377.2,76.4L365,49.1l-8.4,11.1v16.2h-10.9V5.7L356.6,0v34.7v2.9c0,1.1,0,2.2-0.1,3.3
		c0,1.1-0.1,2.1-0.1,3.1v2.5c0.8-1.1,1.8-2.6,2.9-4.3c1.2-1.8,2.2-3.3,3.1-4.7l11.4-16h12.3l-13.9,18.5l16.6,36.6H377.2z"/>
	<path id="XMLID_43_" class="st0" d="M456.6,55.4c0,3.3-0.5,6.3-1.6,9c-1.1,2.7-2.7,5.1-4.9,7c-2.2,2-5,3.5-8.4,4.6
		s-7.5,1.6-12.2,1.6c-5.4,0-10.3-1.1-14.7-3.2c-4.4-2.1-8.2-5-11.4-8.6l7.9-7.7c2.4,2.7,5.4,4.8,8.8,6.3c3.4,1.6,6.8,2.4,10.3,2.4
		c10.1,0,15.2-3.6,15.2-10.7c0-1.4-0.3-2.7-0.8-3.8c-0.6-1.1-1.5-2.2-2.8-3.1c-1.3-0.9-3-1.8-5.1-2.7c-2.1-0.8-4.7-1.7-7.8-2.6
		c-3.9-1.1-7.3-2.3-10.2-3.5c-2.9-1.2-5.2-2.6-7.1-4.1c-1.9-1.6-3.3-3.5-4.2-5.7c-0.9-2.2-1.4-5-1.4-8.3c0-3.1,0.6-6,1.9-8.5
		c1.3-2.5,3-4.7,5.1-6.4c2.2-1.7,4.7-3.1,7.7-4c3-0.9,6.1-1.4,9.5-1.4c5,0,9.5,0.9,13.3,2.6c3.8,1.7,7.4,4.2,10.7,7.3l-7.8,7.9
		c-2.3-2.4-4.8-4.1-7.5-5.3c-2.7-1.2-5.9-1.7-9.5-1.7c-4.3,0-7.5,0.9-9.4,2.7c-1.9,1.8-2.9,4-2.9,6.4c0,1.3,0.2,2.4,0.7,3.4
		c0.5,1,1.3,2,2.5,2.8c1.2,0.9,2.8,1.7,4.9,2.6c2.1,0.8,4.7,1.7,7.9,2.6c3.6,1.1,6.9,2.3,9.8,3.5c2.9,1.2,5.4,2.6,7.4,4.3
		c2,1.7,3.6,3.7,4.7,6C456,49.3,456.6,52.1,456.6,55.4"/>
	<path id="XMLID_42_" class="st0" d="M53.3,55.4c0,3.3-0.5,6.3-1.6,9c-1.1,2.7-2.7,5.1-4.9,7c-2.2,2-5,3.5-8.4,4.6
		s-7.5,1.6-12.2,1.6c-5.4,0-10.3-1.1-14.7-3.2c-4.4-2.1-8.2-5-11.4-8.6l7.9-7.7c2.4,2.7,5.4,4.8,8.8,6.3c3.4,1.6,6.8,2.4,10.3,2.4
		c10.1,0,15.2-3.6,15.2-10.7c0-1.4-0.3-2.7-0.8-3.8c-0.6-1.1-1.5-2.2-2.8-3.1c-1.3-0.9-3-1.8-5.1-2.7c-2.1-0.8-4.7-1.7-7.8-2.6
		c-3.9-1.1-7.3-2.3-10.2-3.5c-2.9-1.2-5.2-2.6-7.1-4.1C6.4,34.8,5,32.8,4,30.6c-0.9-2.2-1.4-5-1.4-8.3c0-3.1,0.6-6,1.9-8.5
		c1.3-2.5,3-4.7,5.1-6.4c2.2-1.7,4.7-3.1,7.7-4c3-0.9,6.1-1.4,9.5-1.4c5,0,9.5,0.9,13.3,2.6c3.8,1.7,7.4,4.2,10.7,7.3l-7.8,7.9
		c-2.3-2.4-4.8-4.1-7.5-5.3c-2.7-1.2-5.9-1.7-9.5-1.7c-4.3,0-7.5,0.9-9.4,2.7c-1.9,1.8-2.9,4-2.9,6.4c0,1.3,0.2,2.4,0.7,3.4
		c0.5,1,1.3,2,2.5,2.8c1.2,0.9,2.8,1.7,4.9,2.6c2.1,0.8,4.7,1.7,7.9,2.6c3.6,1.1,6.9,2.3,9.8,3.5c2.9,1.2,5.4,2.6,7.4,4.3
		c2,1.7,3.6,3.7,4.7,6C52.7,49.3,53.3,52.1,53.3,55.4"/>
	<path id="XMLID_127_" class="st0" d="M506.7,76.4L500.5,59h-29.4L465,76.4h-11.4L480,3h11.6l26.7,73.4H506.7z M491.2,32.3
		c-0.4-1.3-0.9-2.8-1.5-4.4c-0.6-1.6-1.1-3.2-1.6-4.8c-0.5-1.6-1-3.1-1.5-4.5c-0.5-1.4-0.8-2.4-1-3.2c-0.2,0.8-0.5,1.8-0.9,3.2
		c-0.4,1.4-0.9,2.8-1.4,4.4c-0.5,1.6-1,3.2-1.5,4.9c-0.5,1.7-1,3.2-1.5,4.5l-5.9,16.8h22.6L491.2,32.3z"/>
</g>
</svg>
